<svg version="1.1" id="Capa_1" xmlns="http://www.w3.org/2000/svg" xmlns:xlink="http://www.w3.org/1999/xlink" x="0px" y="0px" viewBox="0 0 512.003 512.003" style="width: 1em; height: 1em; vertical-align: middle; fill: currentcolor; overflow: hidden; font-size: 200px;" xml:space="preserve" width="128px" height="128px">
<g>
	<g>
		<path d="M113.65,398.352c-3.91-3.9-10.239-3.9-14.139,0c-3.91,3.91-3.91,10.239,0,14.139c3.9,3.91,10.229,3.91,14.139,0
			C117.55,408.591,117.55,402.262,113.65,398.352z"></path>
	</g>
</g>
<g>
	<g>
		<g>
			<path d="M137.29,151.425c0,0-0.001-0.001-0.002-0.001C137.307,151.443,137.335,151.471,137.29,151.425z"></path>
			<path d="M383.28,284.292c-12.13-12.144-31.076-11.376-42.436-0.004l-7.068,7.068l-21.212-21.212l55.486-55.486
				c39.144,12.697,82.351,2.492,111.717-26.872c30.928-30.917,40.601-77.22,24.641-117.963c-1.232-3.14-3.964-5.45-7.266-6.14
				c-3.304-0.69-6.731,0.332-9.116,2.717l-60.268,60.268c-19.054-8.045-34.384-23.378-42.417-42.424l60.261-60.27
				c2.386-2.385,3.407-5.813,2.718-9.115c-0.69-3.302-2.999-6.034-6.14-7.266C401.451-8.37,355.147,1.3,324.216,32.231
				c-29.355,29.356-39.561,72.571-26.871,111.726l-55.487,55.479l-74.11-74.109l-9.325-49.296c-0.523-2.766-2.188-5.183-4.585-6.658
				L43.535,1.498C39.591-0.928,34.5-0.331,31.223,2.943L2.945,31.222c-3.274,3.274-3.872,8.367-1.445,12.311l67.876,110.304
				c1.475,2.397,3.892,4.062,6.657,4.585l49.296,9.326l74.105,74.113L14.667,426.637c-19.544,19.53-19.559,51.156-0.005,70.698
				c19.535,19.548,51.16,19.556,70.701,0.002l184.781-184.771l21.213,21.211l-7.063,7.064
				c-11.732,11.716-11.745,30.708-0.005,42.435l108.207,108.218c27.365,27.341,71.613,27.353,98.994-0.004
				c27.282-27.292,27.282-71.702-0.002-98.995L383.28,284.292z M315.957,153.627c2.811-2.811,3.69-7.019,2.241-10.718
				c-13.06-33.337-5.147-71.23,20.159-96.536c21.495-21.497,52.062-30.443,81.211-24.647L366.642,74.66
				c-2.678,2.678-3.613,6.639-2.416,10.23c9.838,29.524,33.345,53.035,62.878,62.891c3.595,1.199,7.557,0.265,10.236-2.415
				l52.932-52.932c5.797,29.152-3.151,59.722-24.646,81.208c-25.313,25.315-63.199,33.227-96.522,20.161
				c-3.701-1.453-7.911-0.573-10.721,2.238l-59.961,59.96l-42.425-42.424L315.957,153.627z M71.219,483.198
				c-11.719,11.726-30.682,11.736-42.417-0.004c-11.726-11.719-11.733-30.684,0.003-42.414l184.769-184.778l42.427,42.422
				L71.219,483.198z M137.287,151.423c-1.421-1.42-3.235-2.379-5.209-2.753l-47.985-9.078L22.671,39.779L39.78,22.67l99.813,61.42
				l9.078,47.985c0.373,1.975,1.333,3.791,2.754,5.212l168.209,168.209l-14.137,14.138
				C146.904,161.041,137.624,151.761,137.287,151.423z M477.35,477.342c-19.549,19.533-51.158,19.544-70.716,0.003L298.425,369.128
				c-3.9-3.895-3.925-10.217,0.005-14.143c3.47-3.47,53.629-53.629,56.56-56.561c3.888-3.891,10.21-3.932,14.144,0.005
				l108.212,108.202C496.835,426.127,496.835,457.85,477.35,477.342z"></path>
			<path d="M137.277,151.413c0.001,0.001,0.005,0.005,0.01,0.01c0,0,0.001,0.001,0.001,0.001
				C137.283,151.419,137.279,151.415,137.277,151.413z"></path>
		</g>
	</g>
</g>
<g>
	<g>
		<path d="M85.363,426.639c-3.904-3.905-10.233-3.905-14.142,0l-28.278,28.278c-3.905,3.905-3.905,10.236,0,14.141
			s10.234,3.906,14.142,0l28.278-28.278C89.267,436.876,89.267,430.544,85.363,426.639z"></path>
	</g>
</g>
<g>
	<g>
		<path d="M456.131,413.71l-79.926-79.935c-3.903-3.904-10.235-3.906-14.141,0c-3.906,3.905-3.906,10.235-0.001,14.141
			l79.926,79.935c3.904,3.905,10.236,3.906,14.141,0C460.036,423.947,460.036,417.616,456.131,413.71z"></path>
	</g>
</g>
<g>
	<g>
		<path d="M427.852,441.987l-79.935-79.925c-3.905-3.904-10.237-3.904-14.141,0.001c-3.905,3.906-3.905,10.236,0.001,14.142
			l79.935,79.925c3.905,3.905,10.236,3.904,14.141-0.001C431.757,452.224,431.757,445.893,427.852,441.987z"></path>
	</g>
</g>
<g>
</g>
<g>
</g>
<g>
</g>
<g>
</g>
<g>
</g>
<g>
</g>
<g>
</g>
<g>
</g>
<g>
</g>
<g>
</g>
<g>
</g>
<g>
</g>
<g>
</g>
<g>
</g>
<g>
</g>
</svg>
